<svg version="1" xmlns="http://www.w3.org/2000/svg" width="933.333" height="933.333" viewBox="0 0 700.000000 700.000000"><path d="M327.8.5c-.2.1-4.1.6-8.8.9-4.7.4-9.6.8-11 1-1.4.2-4.6.7-7.1 1-5.4.8-8.4 1.3-15.9 2.7-9.3 1.7-10.3 1.9-18.5 4.1-4.4 1.1-8.4 2.1-9 2.2-4 .9-11.6 3.3-21 6.6C181.2 38.2 132.7 69.7 94 111.7c-10.8 11.7-12.7 13.9-20.1 23.4-18.8 24.1-36.2 54-47.5 81.7-6.2 15.1-14.6 41.1-16.9 52-.2.9-.8 3.7-1.4 6.2-1.1 4.9-1.3 6.3-3.5 19.5-3.4 20.4-4 30.2-4 57 0 21 .2 24.9 2.4 44.6 4.9 43.4 22.2 93.1 46.8 133.9 55.6 92.7 148.6 153.3 257.2 167.6 14.4 1.9 60 2.6 75 1.2 80.9-7.8 155.9-42.5 212.5-98.4 38-37.5 64.6-78.4 83.9-129 7.8-20.4 16.2-54.5 18.2-73.9.4-3.3.8-6.3 1-6.6.9-1.7 1.9-21.4 1.8-39.9 0-18.8-.6-33.1-1.9-42-.3-1.9-.7-5.6-1-8.1-.3-2.5-.7-5.4-.9-6.5-.2-1-1.1-6-2.1-10.9-13.8-74-53.6-143.9-110.6-194.4-13.3-11.8-14.2-12.6-24.1-19.9-36.3-26.9-75.5-45.9-118.1-57.2-11.4-3-28.3-6.7-34.7-7.5-1.9-.3-4.4-.7-5.5-.9-1.1-.2-5.4-.7-9.5-1.1-4.1-.4-8.4-.9-9.5-1.2-2.2-.5-53.1-1.3-53.7-.8z"/></svg>